<?xml version="1.0" encoding="utf-8"?>
<svg viewBox="0 0 630 400" width="630px" height="400px" xmlns="http://www.w3.org/2000/svg">
  <desc>wichtel gopher</desc>
  <title>wichtelbot-cover</title>
  <rect width="630" height="400" style="stroke: rgb(0, 0, 0); fill: rgb(72, 105, 141); stroke-opacity: 0;" rx="1.739" ry="1.739"/>
  <ellipse style="paint-order: stroke; fill: rgb(134, 212, 222); stroke-width: 10px; stroke: rgb(255, 255, 255);" cx="233.899" cy="77.61" rx="29.981" ry="34.657"/>
  <path style="paint-order: stroke; fill: rgb(134, 212, 222); stroke: rgb(255, 255, 255); stroke-width: 14px;" d="M 430.907 264.86 C 445.254 307.114 446.99 317.094 418.699 342.617 C 383.839 374.066 253.044 377.563 221.146 330.324 C 203.918 285.901 218.325 177.832 214.134 151.21 C 189.737 23.869 376.172 -8.532 421.662 96.581 C 441.368 142.113 413.79 214.447 430.907 264.86 Z"/>
  <ellipse style="fill: rgb(255, 255, 255); paint-order: stroke; stroke-width: 6px; stroke: rgb(255, 255, 255);" cx="261.691" cy="113.873" rx="33.576" ry="31.428">
    <animate attributeName="ry" values="31.428;31.428;28;31.428;31.428" dur="3s" fill="freeze" repeatCount="indefinite" keyTimes="0; 0.44184; 0.50392; 0.55565; 1"/>
  </ellipse>
  <ellipse style="fill: rgb(255, 255, 255); paint-order: stroke; stroke-width: 6px; stroke: rgb(255, 255, 255); transform-box: fill-box; transform-origin: 50% 50%;" cx="347.777" cy="114.997" rx="37.804" ry="35.406">
    <animate attributeName="ry" values="35.406;35;30;35;35.406" dur="3s" fill="freeze" keyTimes="0; 0.44359; 0.49067; 0.53621; 1" repeatCount="indefinite" calcMode="spline" keySplines="0.42 0 1 1; 0.42 0 1 1; 0 0 1 1; 0 0 1 1"/>
  </ellipse>
  <path style="fill: rgb(255, 255, 255); paint-order: stroke; stroke-width: 5px; stroke: rgb(255, 255, 255);" d="M 281.702 158.088 C 281.508 158.64 280.808 167.075 280.808 168.087 C 280.808 168.289 280.732 173.37 280.732 174.682 C 280.732 175.984 280.351 178.66 281.778 183.404 C 282.656 186.335 282.559 186.713 283.717 188.511 C 285.237 190.868 290.939 191.475 293.188 188.298 C 294.915 185.861 295.413 179.228 295.427 179.044 C 295.843 173.231 295.799 166.735 295.799 164.788 C 295.799 164.606 294.933 158.66 294.382 157.875 C 293.283 156.307 281.778 156.584 281.778 158.088"/>
  <g>
    <g>
      <g/>
    </g>
  </g>
  <g transform="matrix(0.78393, 0, 0, 0.78393, 122.068443, 33.696861)" style="">
    <g>
      <ellipse style="stroke: rgb(0, 0, 0); paint-order: stroke; stroke-width: 12.6479px;" cx="20.34" cy="90.046" rx="12.335" ry="12.678" transform="matrix(0.999709, 0.024132, -0.024132, 0.999709, 260.816685, 18.074693)"/>
      <ellipse style="stroke: rgb(140, 37, 37); fill: rgb(255, 255, 255); stroke-opacity: 0; paint-order: stroke; stroke-width: 12.6479px;" cx="8.84" cy="101.025" rx="4.968" ry="5.311" transform="matrix(0.999709, 0.024132, -0.024132, 0.999709, 261.361208, 15.799017)"/>
    </g>
  </g>
  <g transform="matrix(0.78393, 0, 0, 0.78393, 141.744064, 42.095352)" style="">
    <ellipse style="stroke: rgb(0, 0, 0); paint-order: stroke; stroke-width: 12.6479px;" cx="20.34" cy="90.046" rx="12.335" ry="12.678" transform="matrix(0.999709, 0.024132, -0.024132, 0.999709, 141.444828, 7.07577)"/>
    <ellipse style="stroke: rgb(140, 37, 37); fill: rgb(255, 255, 255); stroke-opacity: 0; paint-order: stroke; stroke-width: 12.6479px;" cx="8.84" cy="101.025" rx="4.968" ry="5.311" transform="matrix(0.999709, 0.024132, -0.024132, 0.999709, 142.728197, 5.908423)"/>
  </g>
  <ellipse style="stroke-opacity: 0; stroke: rgb(149, 223, 244); fill: rgb(180, 226, 231);" cx="357.903" cy="162.678" rx="15.177" ry="7.306"/>
  <path style="paint-order: stroke; fill: rgb(134, 212, 222); stroke-width: 10px; stroke: rgb(255, 255, 255); transform-box: fill-box; transform-origin: 50% 50%;" d="M 391.643 62.969 C 394.648 24.866 452.581 34.858 441.658 80.301 C 435.368 101.517 410.446 105.766 410.451 99.249" transform="matrix(0.999709, 0.024132, -0.024132, 0.999709, 0, -0.000001)"/>
  <path style="fill: rgb(250, 220, 164); stroke-width: 3px; stroke: rgb(255, 255, 255); transform-box: fill-box; transform-origin: 50% 50%;" d="M 234.543 232.272 C 226.674 232.021 206.305 216.965 222.089 212.399 C 223.559 212.628 208.638 205.761 226.569 201.956 C 242.495 201.36 246.986 226.538 244.812 233.337 L 234.543 232.272 Z" transform="matrix(-1, 0, 0, -1, -0.000014, 0.000016)"/>
  <path style="fill: rgb(255, 255, 255); paint-order: stroke; stroke-width: 5px; stroke: rgb(255, 255, 255);" d="M 303.893 159.918 C 303.701 160.47 302.999 166.187 302.999 167.2 C 302.999 167.402 302.592 172.684 302.592 173.994 C 302.592 175.296 302.034 179.236 303.111 184.115 C 303.823 187.345 304.05 188.103 306.559 190.902 C 308.477 193.04 313.073 190.496 315.324 187.321 C 317.051 184.885 317.355 179.648 317.369 179.464 C 317.785 173.652 317.991 168.565 317.991 166.618 C 317.991 166.433 317.126 160.49 316.574 159.702 C 315.476 158.137 303.969 158.412 303.969 159.915"/>
  <path d="M 299.952 164.543 C 283.346 165.991 267.318 169.161 271.346 159.247 C 275.374 149.332 282.439 149.247 289.498 149.399 C 293.015 149.474 301.712 149.458 305.171 149.098 C 308.153 148.787 314.816 148.179 326.492 157.077 C 338.167 165.973 322.084 172.231 299.952 164.543 Z" style="paint-order: stroke; stroke-width: 6px; fill: rgb(250, 220, 164); stroke: rgb(255, 255, 255); transform-origin: 303.82px 161.506px;"/>
  <ellipse style="stroke: rgb(0, 0, 0); paint-order: stroke; stroke-width: 6px;" cx="296.216" cy="148.114" rx="10.873" ry="5.704"/>
  <path d="M 418.699 74.298 C 418.699 80.54 414.799 85.601 409.99 85.601 C 409.676 85.601 409.368 85.579 409.064 85.537 C 409.039 80.164 405.838 75.561 401.296 73.618 C 401.566 67.691 405.354 62.995 409.99 62.995 C 414.799 62.995 418.699 68.055 418.699 74.298 Z" style="stroke: rgb(255, 255, 255); fill: rgb(255, 255, 255);"/>
  <ellipse style="stroke-opacity: 0; stroke: rgb(149, 223, 244); fill: rgb(180, 226, 231);" cx="250.815" cy="159.352" rx="14.066" ry="7.306"/>
  <g id="SVGRepo_iconCarrier" transform="matrix(0.302047, 0.075309, -0.057976, 0.232529, -17.699621, -47.489933)" style="transform-origin: 237.208px 256px;">
    <g>
      <path style="fill: none; --darkreader-inline-fill: none;" d="M284.549,127.723h0.814v0.321h79.817l6.322-6.322l-87.471,4.701 C284.223,126.851,284.383,127.288,284.549,127.723z" data-darkreader-inline-fill=""/>
      <path style="opacity: 0.07; fill: rgb(4, 0, 0); --darkreader-inline-fill: #e7e5e1;" d="M383.655,121.069c0.062-0.004,0.111-0.022,0.173-0.026 c2.141-0.125,4.124-0.447,5.983-0.905c0.638-0.158,1.19-0.397,1.795-0.592c1.216-0.39,2.394-0.81,3.464-1.341 c0.61-0.302,1.154-0.652,1.715-0.997c0.922-0.567,1.785-1.171,2.572-1.845c0.489-0.42,0.949-0.85,1.384-1.308 c0.706-0.744,1.316-1.541,1.876-2.379c0.33-0.494,0.676-0.97,0.953-1.495c0.519-0.979,0.894-2.028,1.225-3.104 c0.145-0.471,0.352-0.908,0.46-1.396c0.353-1.598,0.536-3.269,0.479-5.024c-0.006-0.199-0.072-0.413-0.084-0.614 c-0.082-1.398-0.234-2.82-0.585-4.293c-0.02,0.045-0.059,0.078-0.079,0.123c-0.431-1.857-1.09-3.762-1.937-5.7l-31.549,31.549 L383.655,121.069z" data-darkreader-inline-fill=""/>
      <g>
        <g>
          <path style="--darkreader-inline-fill: #e8e6e3; fill: rgb(184, 207, 236);" d="M448.424,198.784v293.948c0,10.577-8.609,19.268-19.268,19.268H45.261 c-10.659,0-19.268-8.691-19.268-19.268V198.784c0-10.577,8.609-19.269,19.268-19.269h383.895 C439.815,179.515,448.424,188.206,448.424,198.784z" data-darkreader-inline-fill=""/>
          <path style="opacity: 0.1; fill: rgb(6, 21, 8); --darkreader-inline-fill: #dfddd9;" d="M448.424,198.784v98.885H25.992v-98.885c0-10.577,8.609-19.269,19.268-19.269h383.895 C439.815,179.515,448.424,188.206,448.424,198.784z" data-darkreader-inline-fill=""/>
          <path style="--darkreader-inline-fill: #e8e6e3; fill: rgb(187, 238, 228);" d="M474.416,157.623v73.221c0,2.788-0.41,5.493-1.147,8.117 c-3.198,11.233-12.955,19.761-24.844,21.237c-1.148,0.164-2.378,0.246-3.608,0.246H29.6c-1.23,0-2.46-0.082-3.607-0.246 C11.397,258.393,0,245.848,0,230.843v-73.221c0-16.235,13.283-29.6,29.6-29.6h415.217 C461.133,128.023,474.416,141.388,474.416,157.623z" data-darkreader-inline-fill=""/>
          <linearGradient id="SVGID_1_" gradientUnits="userSpaceOnUse" x1="188.4222" y1="135.2383" x2="285.9946" y2="135.2383">
            <stop offset="0.0338" style="stop-color: rgb(34, 159, 176); --darkreader-inline-stopcolor: #59cfdf;" data-darkreader-inline-stopcolor=""/>
            <stop offset="0.9903" style="stop-color: rgb(77, 192, 226); --darkreader-inline-stopcolor: #57c3e4;" data-darkreader-inline-stopcolor=""/>
          </linearGradient>
          <path style="fill:url(#SVGID_1_);" d="M285.995,135.239c0,1.721-0.164,3.361-0.656,4.919 c-3.608,15.087-23.778,26.566-48.13,26.566c-24.352,0-44.523-11.479-48.13-26.566c-0.492-1.558-0.656-3.198-0.656-4.919 c0-1.722,0.164-3.362,0.656-4.92c0.164-0.82,0.328-1.558,0.656-2.296c0-0.164,0.082-0.246,0.164-0.328 c0.082-0.41,0.246-0.82,0.492-1.23c2.132-4.838,5.985-9.183,11.151-12.627c5.985-4.181,13.611-7.297,22.302-8.855 c4.182-0.82,8.691-1.23,13.365-1.23c4.674,0,9.183,0.41,13.365,1.23c8.691,1.558,16.317,4.674,22.303,8.855 c5.166,3.444,9.019,7.789,11.151,12.627c0.246,0.41,0.41,0.82,0.492,1.23c0.082,0.082,0.164,0.164,0.164,0.328 c0.328,0.738,0.492,1.476,0.656,2.296C285.831,131.877,285.995,133.516,285.995,135.239z"/>
          <rect x="189.054" y="259.145" style="fill: rgb(34, 161, 163); --darkreader-inline-fill: #63dcde;" width="96.309" height="252.643" data-darkreader-inline-fill=""/>
          <rect x="189.078" y="127.695" style="fill: rgb(78, 190, 198); --darkreader-inline-fill: #5dc3cb;" width="96.261" height="132.748" data-darkreader-inline-fill=""/>
          <g>
            <g>
              <linearGradient id="SVGID_2_" gradientUnits="userSpaceOnUse" x1="68.6858" y1="63.7493" x2="228.107" y2="63.7493">
                <stop offset="0.0338" style="stop-color: rgb(88, 192, 208); --darkreader-inline-stopcolor: #62c4d3;" data-darkreader-inline-stopcolor=""/>
                <stop offset="0.9903" style="stop-color: rgb(45, 175, 196); --darkreader-inline-stopcolor: #4cc3d6;" data-darkreader-inline-stopcolor=""/>
              </linearGradient>
              <path style="fill:url(#SVGID_2_);" d="M228.107,116.298c0,2.542-0.82,4.755-2.46,6.559c-0.246,0.328-0.656,0.656-0.984,0.902 c-3.198,2.706-8.446,4.018-15.579,3.69l-18.694-0.984l-99.623-5.412c-7.79-0.41-13.775-3.116-17.547-7.379 c-0.82-0.984-1.558-1.968-2.213-3.034c-1.968-3.444-2.706-7.544-2.132-12.053c0-0.41,0.082-0.82,0.246-1.312 c0-0.492,0.082-0.984,0.328-1.476c0.492-2.378,1.394-4.756,2.624-7.215l38.291-74.697c8.609-16.891,25.418-18.612,37.307-3.853 l74.286,92.407c0.738,0.902,1.312,1.722,1.886,2.542c0.82,1.148,1.476,2.213,1.968,3.279c0.41,0.738,0.738,1.476,0.984,2.132 c0.328,0.738,0.574,1.476,0.738,2.132c0.164,0.656,0.328,1.312,0.41,1.968C228.025,115.068,228.107,115.724,228.107,116.298z"/>
              <path style="opacity: 0.07; fill: rgb(6, 21, 8); --darkreader-inline-fill: #dfddd9;" d="M228.107,116.298c0,2.542-0.82,4.755-2.46,6.559 c-0.246,0.328-0.656,0.656-0.984,0.902c-3.198,2.706-8.446,4.018-15.579,3.69l-18.694-0.984l-99.623-5.412 c-7.79-0.41-13.775-3.116-17.547-7.379c-0.82-0.984-1.558-1.968-2.213-3.034c-1.968-3.444-2.706-7.544-2.132-12.053 c0-0.41,0.082-0.82,0.246-1.312c0-0.492,0.082-0.984,0.246-1.558l0.082,0.082c2.952,6.805,10.167,11.479,20.498,11.971 l111.594,6.067l6.723,0.328c8.937,0.492,15.005-1.804,17.547-5.904c0.41,0.738,0.738,1.476,0.984,2.132 c0.328,0.738,0.574,1.476,0.738,2.132c0.164,0.656,0.328,1.312,0.41,1.968C228.025,115.068,228.107,115.724,228.107,116.298z" data-darkreader-inline-fill=""/>
            </g>
            <g>
              <linearGradient id="SVGID_3_" gradientUnits="userSpaceOnUse" x1="246.3099" y1="63.7815" x2="405.731" y2="63.7815">
                <stop offset="0.0338" style="stop-color: rgb(88, 192, 208); --darkreader-inline-stopcolor: #62c4d3;" data-darkreader-inline-stopcolor=""/>
                <stop offset="0.9903" style="stop-color: rgb(45, 175, 196); --darkreader-inline-stopcolor: #4cc3d6;" data-darkreader-inline-stopcolor=""/>
              </linearGradient>
              <path style="fill:url(#SVGID_3_);" d="M403.41,110.64c-0.656,1.066-1.394,2.05-2.214,3.034 c-3.771,4.263-9.757,6.969-17.546,7.379l-99.623,5.412l-18.695,0.984c-7.133,0.328-12.381-0.984-15.579-3.69 c-0.328-0.246-0.738-0.574-0.984-0.902c-1.64-1.804-2.46-4.018-2.46-6.559c0-0.574,0.082-1.23,0.164-1.804 c0.082-0.656,0.246-1.312,0.41-1.968c0.164-0.656,0.41-1.394,0.738-2.132c0.246-0.656,0.574-1.394,0.984-2.132 c0.492-1.066,1.148-2.132,1.968-3.279c0.574-0.82,1.148-1.64,1.886-2.542l74.286-92.407c6.641-8.281,14.841-11.315,22.302-9.43 c5.822,1.394,11.233,5.822,15.005,13.283l1.804,3.526l36.487,71.171c1.23,2.46,2.132,4.837,2.624,7.215 c0.246,0.492,0.328,0.984,0.328,1.476c0.164,0.492,0.246,0.902,0.246,1.312C406.116,103.097,405.378,107.196,403.41,110.64z"/>
              <path style="opacity: 0.07; fill: rgb(6, 21, 8); --darkreader-inline-fill: #dfddd9;" d="M265.291,127.429l118.363-6.363c16.167-0.867,24.668-11.666,21.413-25.316 c-2.986,6.851-10.196,11.493-20.559,12.051l-118.357,6.356c-8.969,0.481-14.985-1.791-17.567-5.888 C242.421,120.045,248.957,128.309,265.291,127.429z" data-darkreader-inline-fill=""/>
            </g>
          </g>
        </g>
        <path style="opacity: 0.03; --darkreader-inline-fill: #dfddd9; fill: rgb(53, 168, 68);" d="M474.416,157.623v73.221c0,2.788-0.41,5.493-1.147,8.117 c-3.198,11.151-12.955,19.597-24.844,21.072v232.699c0,10.577-8.609,19.268-19.268,19.268H45.261 c-10.659,0-19.268-8.691-19.268-19.268v-25.5l163.085-163.086l6.478-6.477l37.225-37.225l80.928-80.928l51.492-51.492h79.616 C461.133,128.023,474.416,141.388,474.416,157.623z" data-darkreader-inline-fill=""/>
      </g>
    </g>
    <animateTransform type="translate" additive="sum" attributeName="transform" values="0 0;0 30;0 -10;0 0" begin="0s" dur="1s" fill="freeze" keyTimes="0; 0.33106; 0.689761; 1" calcMode="spline" keySplines="0.42 0 0.58 1; 0 0 0.58 1; 0 0 0.58 1" repeatCount="indefinite"/>
  </g>
  <path style="fill: rgb(250, 220, 164); stroke: rgb(255, 255, 255); stroke-width: 3px;" d="M 304.793 209.688 C 290.159 209.113 263.4 224.641 286.862 228.887 C 289.049 228.676 266.87 235.062 293.525 238.6 C 317.197 239.155 339.567 216.251 331.908 214.232 C 314.489 209.641 314.351 210.211 304.793 209.688 Z">
    <animateTransform type="translate" additive="sum" attributeName="transform" values="0 0;0 5;0 -2;0 0" begin="0s" dur="1s" fill="freeze" keyTimes="0; 0.32422; 0.638136; 1" repeatCount="indefinite"/>
  </path>
  <g id="SVGRepo_bgCarrier" stroke-width="0" transform="matrix(0.397094, 0, 0, 0.3057, -20.025568, 148.326843)" style=""/>
  <g id="SVGRepo_tracerCarrier" stroke-linecap="round" stroke-linejoin="round" transform="matrix(0.397094, 0, 0, 0.3057, -20.025568, 148.326843)" style=""/>
  <path style="fill: rgb(250, 220, 164); stroke: rgb(255, 255, 255); stroke-width: 3px; transform-origin: 245.079px 338.064px;" d="M 263.844 337.632 C 264.746 323.059 248.391 299.759 243.383 323.069 C 243.567 325.251 237.405 299.421 233.093 325.924 C 232.035 349.503 256.132 372.175 258.445 364.577 C 263.703 347.294 263.096 347.148 263.844 337.632 Z"/>
  <path style="fill: rgb(250, 220, 164); stroke: rgb(255, 255, 255); stroke-width: 3px; transform-origin: 352.638px 334.421px;" d="M 371.951 354.017 C 380.769 341.129 372.621 315.217 353.722 333.822 C 352.832 335.93 351.234 307.87 331.608 329.802 C 325.53 352.135 344.128 381.04 351.204 375.359 C 367.295 362.439 365.983 362.344 371.951 354.017 Z"/>
</svg>